<?xml version="1.0" encoding="UTF-8" standalone="no"?>
<!-- Created with Inkscape (http://www.inkscape.org/) -->

<svg
   xmlns:dc="http://purl.org/dc/elements/1.1/"
   xmlns:cc="http://creativecommons.org/ns#"
   xmlns:rdf="http://www.w3.org/1999/02/22-rdf-syntax-ns#"
   xmlns:svg="http://www.w3.org/2000/svg"
   xmlns="http://www.w3.org/2000/svg"
   xmlns:sodipodi="http://sodipodi.sourceforge.net/DTD/sodipodi-0.dtd"
   xmlns:inkscape="http://www.inkscape.org/namespaces/inkscape"
   width="13.518028mm"
   height="11.806462mm"
   viewBox="0 0 13.518028 11.806462"
   version="1.1"
   id="svg8"
   inkscape:version="0.92.3 (2405546, 2018-03-11)"
   sodipodi:docname="qr_search.svg">
  <defs
     id="defs2" />
  <sodipodi:namedview
     id="base"
     pagecolor="#ffffff"
     bordercolor="#666666"
     borderopacity="1.0"
     inkscape:pageopacity="0.0"
     inkscape:pageshadow="2"
     inkscape:zoom="1.4"
     inkscape:cx="-138.24612"
     inkscape:cy="137.10532"
     inkscape:document-units="mm"
     inkscape:current-layer="layer1"
     showgrid="false"
     inkscape:window-width="968"
     inkscape:window-height="531"
     inkscape:window-x="511"
     inkscape:window-y="380"
     inkscape:window-maximized="0"
     fit-margin-top="0"
     fit-margin-left="0"
     fit-margin-right="0"
     fit-margin-bottom="0" />
  <metadata
     id="metadata5">
    <rdf:RDF>
      <cc:Work
         rdf:about="">
        <dc:format>image/svg+xml</dc:format>
        <dc:type
           rdf:resource="http://purl.org/dc/dcmitype/StillImage" />
        <dc:title></dc:title>
      </cc:Work>
    </rdf:RDF>
  </metadata>
  <g
     inkscape:label="レイヤー 1"
     inkscape:groupmode="layer"
     id="layer1"
     transform="translate(-27.793849,-32.240236)">
    <g
       id="g828"
       transform="matrix(0.10476125,0,0,0.10476125,24.486158,23.873454)">
      <path
         id="rect815"
         transform="scale(0.26458333)"
         d="m 120,302.51953 v 160 h 160 v -160 z m 30.85742,32 H 248 v 97.14258 h -97.14258 z"
         style="opacity:0.98999999;fill:#000000;fill-opacity:1;stroke:#000000;stroke-width:1.33333337;stroke-miterlimit:4;stroke-dasharray:none;stroke-opacity:1;paint-order:markers stroke fill"
         inkscape:connector-curvature="0" />
      <rect
         y="94.782608"
         x="45.206032"
         height="13.607142"
         width="13.607142"
         id="rect824"
         style="opacity:0.98999999;fill:#000000;fill-opacity:1;stroke:#000000;stroke-width:0.35277778;stroke-miterlimit:4;stroke-dasharray:none;stroke-opacity:1;paint-order:markers stroke fill" />
    </g>
    <g
       transform="matrix(0.10476125,0,0,0.10476125,24.486158,29.280265)"
       id="g834">
      <path
         inkscape:connector-curvature="0"
         style="opacity:0.98999999;fill:#000000;fill-opacity:1;stroke:#000000;stroke-width:1.33333337;stroke-miterlimit:4;stroke-dasharray:none;stroke-opacity:1;paint-order:markers stroke fill"
         d="m 120,302.51953 v 160 h 160 v -160 z m 30.85742,32 H 248 v 97.14258 h -97.14258 z"
         transform="scale(0.26458333)"
         id="path830" />
      <rect
         style="opacity:0.98999999;fill:#000000;fill-opacity:1;stroke:#000000;stroke-width:0.35277778;stroke-miterlimit:4;stroke-dasharray:none;stroke-opacity:1;paint-order:markers stroke fill"
         id="rect832"
         width="13.607142"
         height="13.607142"
         x="45.206032"
         y="94.782608" />
    </g>
    <g
       id="g840"
       transform="matrix(0.10476125,0,0,0.10476125,30.105358,23.873454)">
      <path
         id="path836"
         transform="scale(0.26458333)"
         d="m 120,302.51953 v 160 h 160 v -160 z m 30.85742,32 H 248 v 97.14258 h -97.14258 z"
         style="opacity:0.98999999;fill:#000000;fill-opacity:1;stroke:#000000;stroke-width:1.33333337;stroke-miterlimit:4;stroke-dasharray:none;stroke-opacity:1;paint-order:markers stroke fill"
         inkscape:connector-curvature="0" />
      <rect
         y="94.782608"
         x="45.206032"
         height="13.607142"
         width="13.607142"
         id="rect838"
         style="opacity:0.98999999;fill:#000000;fill-opacity:1;stroke:#000000;stroke-width:0.35277778;stroke-miterlimit:4;stroke-dasharray:none;stroke-opacity:1;paint-order:markers stroke fill" />
    </g>
    <path
       style="opacity:0.98999999;fill:#000000;fill-opacity:1;stroke:#ffffff;stroke-width:1.52900004;stroke-linecap:butt;stroke-linejoin:bevel;stroke-miterlimit:4;stroke-dasharray:none;stroke-opacity:1;paint-order:stroke fill markers"
       d="m 33.834786,36.607202 a 2.8762375,2.8762375 0 0 0 -2.35835,3.31413 2.8762375,2.8762375 0 0 0 3.314137,2.358393 2.8762375,2.8762375 0 0 0 1.760372,-1.034266 l 3.246488,1.970535 0.05399,0.03156 0.0022,-0.0039 c 0.23159,0.09894 0.500656,0.01025 0.628049,-0.206989 0.126941,-0.217582 0.07228,-0.495595 -0.127584,-0.648928 l 0.0022,-0.0038 -0.05399,-0.03156 -3.282173,-1.948224 a 2.8762375,2.8762375 0 0 0 0.128769,-1.438618 2.8762375,2.8762375 0 0 0 -3.314172,-2.358343 z m 0.100532,0.445948 a 2.4072856,2.4072856 0 0 1 2.773801,1.973849 2.4072856,2.4072856 0 0 1 -1.97385,2.773799 2.4072856,2.4072856 0 0 1 -2.773799,-1.973848 2.4072856,2.4072856 0 0 1 1.973848,-2.7738 z"
       id="path842"
       inkscape:connector-curvature="0" />
  </g>
</svg>
